<svg xmlns="http://www.w3.org/2000/svg" xmlns:xlink="http://www.w3.org/1999/xlink" width="39" height="40" viewBox="0 0 39 40" fill="none"><g opacity="1" transform="translate(0 0)  rotate(0 19.5 20)"><path id="Shape" fill-rule="evenodd" style="fill:#FFFFFF" transform="translate(29.27 32.19)  rotate(0 4.625 0.485)" opacity="1" d="M0.48,0C0.22,0 0,0.22 0,0.49C0,0.75 0.22,0.97 0.48,0.97L8.77,0.97C9.03,0.97 9.25,0.75 9.25,0.49C9.25,0.22 9.03,0 8.77,0L0.48,0Z " /><path  id="Shape" style="stroke:#222532; stroke-width:0; stroke-opacity:1; stroke-dasharray:0 0" transform="translate(29.27 32.19)  rotate(0 4.625 0.485)" d="M0.48,0C0.22,0 0,0.22 0,0.49C0,0.75 0.22,0.97 0.48,0.97L8.77,0.97C9.03,0.97 9.25,0.75 9.25,0.49C9.25,0.22 9.03,0 8.77,0L0.48,0Z " /><path id="Shape" fill-rule="evenodd" style="fill:#FFFFFF" transform="translate(28.26 38.34)  rotate(0 5.125 0.485)" opacity="1" d="M0.48,0C0.22,0 0,0.22 0,0.49C0,0.75 0.22,0.97 0.48,0.97L9.77,0.97C10.03,0.97 10.25,0.75 10.25,0.49C10.25,0.22 10.03,0 9.77,0L0.48,0Z " /><path  id="Shape" style="stroke:#222532; stroke-width:0; stroke-opacity:1; stroke-dasharray:0 0" transform="translate(28.26 38.34)  rotate(0 5.125 0.485)" d="M0.48,0C0.22,0 0,0.22 0,0.49C0,0.75 0.22,0.97 0.48,0.97L9.77,0.97C10.03,0.97 10.25,0.75 10.25,0.49C10.25,0.22 10.03,0 9.77,0L0.48,0Z " /><path id="Shape" fill-rule="evenodd" style="fill:#FFFFFF" transform="translate(0 34.72)  rotate(0 4.23 0.485)" opacity="1" d="M7.98,0.97C8.24,0.97 8.46,0.75 8.46,0.49C8.46,0.22 8.24,0 7.98,0L0.48,0C0.22,0 0,0.22 0,0.49C0,0.75 0.22,0.97 0.48,0.97L7.98,0.97Z " /><path  id="Shape" style="stroke:#222532; stroke-width:0; stroke-opacity:1; stroke-dasharray:0 0" transform="translate(0 34.72)  rotate(0 4.23 0.485)" d="M7.98,0.97C8.24,0.97 8.46,0.75 8.46,0.49C8.46,0.22 8.24,0 7.98,0L0.48,0C0.22,0 0,0.22 0,0.49C0,0.75 0.22,0.97 0.48,0.97L7.98,0.97Z " /><path id="Shape" fill-rule="evenodd" style="fill:#FFFFFF" transform="translate(0.82 0.48)  rotate(0 5.01 5.035)" opacity="1" d="M3.48 0.14C3.33 0 3.11 -0.04 2.93 0.05C1.12 0.95 0 2.76 0 4.78C0 7.7 2.36 10.07 5.26 10.07C7.27 10.07 9.07 8.94 9.97 7.13C10.06 6.94 10.03 6.72 9.88 6.57C9.73 6.42 9.51 6.38 9.32 6.48C8.72 6.78 8.08 6.93 7.42 6.93C5.05 6.93 3.12 4.99 3.12 2.62C3.12 1.95 3.27 1.31 3.57 0.7C3.66 0.52 3.63 0.29 3.48 0.14L3.48 0.14Z M7.42 7.9C4.52 7.9 2.16 5.53 2.16 2.62C2.16 2.31 2.18 2.01 2.23 1.72C1.43 2.51 0.96 3.61 0.96 4.78C0.96 7.16 2.89 9.1 5.26 9.1C6.43 9.1 7.52 8.63 8.31 7.83C8.02 7.88 7.72 7.9 7.42 7.9L7.42 7.9Z " /><path  id="Shape" style="stroke:#222532; stroke-width:0; stroke-opacity:1; stroke-dasharray:0 0" transform="translate(0.82 0.48)  rotate(0 5.01 5.035)" d="M3.48 0.14C3.33 0 3.11 -0.04 2.93 0.05C1.12 0.95 0 2.76 0 4.78C0 7.7 2.36 10.07 5.26 10.07C7.27 10.07 9.07 8.94 9.97 7.13C10.06 6.94 10.03 6.72 9.88 6.57C9.73 6.42 9.51 6.38 9.32 6.48C8.72 6.78 8.08 6.93 7.42 6.93C5.05 6.93 3.12 4.99 3.12 2.62C3.12 1.95 3.27 1.31 3.57 0.7C3.66 0.52 3.63 0.29 3.48 0.14L3.48 0.14Z M7.42 7.9C4.52 7.9 2.16 5.53 2.16 2.62C2.16 2.31 2.18 2.01 2.23 1.72C1.43 2.51 0.96 3.61 0.96 4.78C0.96 7.16 2.89 9.1 5.26 9.1C6.43 9.1 7.52 8.63 8.31 7.83C8.02 7.88 7.72 7.9 7.42 7.9L7.42 7.9Z " /><path id="Shape" fill-rule="evenodd" style="fill:#FFFFFF" transform="translate(0.06 0.72)  rotate(0 19.23 15.955)" opacity="1" d="M19.18 31.9C21.08 31.86 22.69 30.57 23.23 28.82L34.27 28.82C34.54 28.82 34.75 28.6 34.75 28.33L34.75 24.43L37.56 28.6C37.68 28.78 37.9 28.86 38.1 28.79C38.3 28.73 38.44 28.54 38.44 28.33L38.46 24.17C38.46 23.9 38.25 23.69 37.98 23.68L37.98 23.68L37.98 23.68C37.71 23.68 37.5 23.9 37.5 24.17L37.49 26.76L19.62 0.2C19.44 -0.07 19 -0.07 18.82 0.2L0.97 26.74L0.98 23.99C0.98 23.72 0.77 23.5 0.5 23.5L0.5 23.5C0.23 23.5 0.02 23.72 0.02 23.99L0 28.33C0 28.54 0.14 28.73 0.34 28.79C0.39 28.81 0.43 28.81 0.48 28.81C0.64 28.81 0.79 28.74 0.88 28.6L3.69 24.43L3.69 28.33C3.69 28.6 3.91 28.82 4.17 28.82L14.89 28.82C15.44 30.61 17.1 31.91 19.06 31.91C19.08 31.91 19.09 31.91 19.1 31.91C19.11 31.91 19.11 31.91 19.12 31.91C19.14 31.91 19.16 31.9 19.18 31.9Z M19.18 30.94C19.99 30.91 20.65 30.23 20.65 29.41C20.65 28.86 19.85 27.59 19.12 26.63C18.39 27.59 17.59 28.86 17.59 29.41C17.59 30.25 18.27 30.93 19.1 30.94C19.13 30.94 19.15 30.94 19.18 30.94Z M21.56 29.83Z M21.61 29.41C21.61 29.56 21.59 29.69 21.56 29.83C22.12 29.22 22.45 28.42 22.45 27.54C22.45 26.08 20.26 22.99 19.06 21.45C17.85 22.99 15.66 26.09 15.66 27.54C15.66 28.5 16.06 29.36 16.69 29.98C16.65 29.8 16.62 29.61 16.62 29.41C16.62 28.18 18.39 25.97 18.74 25.54C18.93 25.32 19.3 25.32 19.48 25.54C19.84 25.97 21.61 28.18 21.61 29.41Z M19.43 20.37Z M19.43 20.37C19.84 20.86 23.42 25.28 23.42 27.54C23.42 27.64 23.41 27.75 23.41 27.85L28.61 27.85L28.61 24.65C27.98 24.14 25.9 22.36 23.79 19.73C22.08 17.59 20.13 14.57 19.24 11.13C18.35 14.57 16.4 17.59 14.69 19.73C12.58 22.36 10.5 24.14 9.87 24.65L9.87 27.85L14.72 27.85C14.71 27.75 14.7 27.64 14.7 27.54C14.7 25.27 18.28 20.86 18.69 20.37C18.87 20.14 19.25 20.14 19.43 20.37Z M9.09 24.03C9.19 23.95 18.75 16.41 18.75 7.47C18.75 7.2 18.97 6.98 19.23 6.98C19.5 6.98 19.72 7.2 19.72 7.47C19.72 16.41 29.28 23.95 29.38 24.03C29.5 24.12 29.57 24.27 29.57 24.41L29.57 27.85L33.79 27.85L33.79 23L19.22 1.34L4.65 23L4.65 27.85L8.9 27.85L8.9 24.41C8.9 24.26 8.97 24.12 9.09 24.03Z " /><path  id="Shape" style="stroke:#222532; stroke-width:0; stroke-opacity:1; stroke-dasharray:0 0" transform="translate(0.06 0.72)  rotate(0 19.23 15.955)" d="M19.18 31.9C21.08 31.86 22.69 30.57 23.23 28.82L34.27 28.82C34.54 28.82 34.75 28.6 34.75 28.33L34.75 24.43L37.56 28.6C37.68 28.78 37.9 28.86 38.1 28.79C38.3 28.73 38.44 28.54 38.44 28.33L38.46 24.17C38.46 23.9 38.25 23.69 37.98 23.68L37.98 23.68L37.98 23.68C37.71 23.68 37.5 23.9 37.5 24.17L37.49 26.76L19.62 0.2C19.44 -0.07 19 -0.07 18.82 0.2L0.97 26.74L0.98 23.99C0.98 23.72 0.77 23.5 0.5 23.5L0.5 23.5C0.23 23.5 0.02 23.72 0.02 23.99L0 28.33C0 28.54 0.14 28.73 0.34 28.79C0.39 28.81 0.43 28.81 0.48 28.81C0.64 28.81 0.79 28.74 0.88 28.6L3.69 24.43L3.69 28.33C3.69 28.6 3.91 28.82 4.17 28.82L14.89 28.82C15.44 30.61 17.1 31.91 19.06 31.91C19.08 31.91 19.09 31.91 19.1 31.91C19.11 31.91 19.11 31.91 19.12 31.91C19.14 31.91 19.16 31.9 19.18 31.9Z M19.18 30.94C19.99 30.91 20.65 30.23 20.65 29.41C20.65 28.86 19.85 27.59 19.12 26.63C18.39 27.59 17.59 28.86 17.59 29.41C17.59 30.25 18.27 30.93 19.1 30.94C19.13 30.94 19.15 30.94 19.18 30.94Z M21.56 29.83Z M21.61 29.41C21.61 29.56 21.59 29.69 21.56 29.83C22.12 29.22 22.45 28.42 22.45 27.54C22.45 26.08 20.26 22.99 19.06 21.45C17.85 22.99 15.66 26.09 15.66 27.54C15.66 28.5 16.06 29.36 16.69 29.98C16.65 29.8 16.62 29.61 16.62 29.41C16.62 28.18 18.39 25.97 18.74 25.54C18.93 25.32 19.3 25.32 19.48 25.54C19.84 25.97 21.61 28.18 21.61 29.41Z M19.43 20.37Z M19.43 20.37C19.84 20.86 23.42 25.28 23.42 27.54C23.42 27.64 23.41 27.75 23.41 27.85L28.61 27.85L28.61 24.65C27.98 24.14 25.9 22.36 23.79 19.73C22.08 17.59 20.13 14.57 19.24 11.13C18.35 14.57 16.4 17.59 14.69 19.73C12.58 22.36 10.5 24.14 9.87 24.65L9.87 27.85L14.72 27.85C14.71 27.75 14.7 27.64 14.7 27.54C14.7 25.27 18.28 20.86 18.69 20.37C18.87 20.14 19.25 20.14 19.43 20.37Z M9.09 24.03C9.19 23.95 18.75 16.41 18.75 7.47C18.75 7.2 18.97 6.98 19.23 6.98C19.5 6.98 19.72 7.2 19.72 7.47C19.72 16.41 29.28 23.95 29.38 24.03C29.5 24.12 29.57 24.27 29.57 24.41L29.57 27.85L33.79 27.85L33.79 23L19.22 1.34L4.65 23L4.65 27.85L8.9 27.85L8.9 24.41C8.9 24.26 8.97 24.12 9.09 24.03Z " /><path id="Shape" fill-rule="evenodd" style="fill:#FFFFFF" transform="translate(11.94 32.05)  rotate(0 7.345 3.63)" opacity="1" d="M0.02 2.65C-0.02 2.77 0 2.91 0.06 3.02C0.12 3.13 0.23 3.22 0.35 3.25L2.14 3.76L0.65 4.26C0.53 4.3 0.43 4.38 0.37 4.5C0.31 4.62 0.3 4.75 0.35 4.87L1.06 6.93C1.12 7.13 1.31 7.26 1.51 7.26C1.56 7.26 1.61 7.25 1.66 7.24L7.28 5.36L13.41 7.11C13.46 7.12 13.5 7.13 13.54 7.13C13.75 7.13 13.94 6.99 14 6.78L14.62 4.69C14.66 4.57 14.64 4.43 14.58 4.32C14.52 4.21 14.41 4.12 14.29 4.09L12.58 3.6L14.36 3.01C14.48 2.97 14.58 2.88 14.64 2.76L14.64 2.76C14.7 2.64 14.71 2.51 14.66 2.39L13.95 0.33C13.87 0.08 13.6 -0.06 13.35 0.02L7.43 2L1.23 0.23C0.97 0.16 0.71 0.31 0.63 0.56L0.02 2.65Z M3.77 3.21L5.8 2.53L1.42 1.29L1.08 2.45L3.77 3.21Z M10.94 4.14L8.91 4.82L13.21 6.04L13.55 4.88L10.94 4.14Z M13.59 2.24L13.2 1.1L1.41 5.03L1.8 6.17L13.59 2.24Z " /><path  id="Shape" style="stroke:#222532; stroke-width:0; stroke-opacity:1; stroke-dasharray:0 0" transform="translate(11.94 32.05)  rotate(0 7.345 3.63)" d="M0.02 2.65C-0.02 2.77 0 2.91 0.06 3.02C0.12 3.13 0.23 3.22 0.35 3.25L2.14 3.76L0.65 4.26C0.53 4.3 0.43 4.38 0.37 4.5C0.31 4.62 0.3 4.75 0.35 4.87L1.06 6.93C1.12 7.13 1.31 7.26 1.51 7.26C1.56 7.26 1.61 7.25 1.66 7.24L7.28 5.36L13.41 7.11C13.46 7.12 13.5 7.13 13.54 7.13C13.75 7.13 13.94 6.99 14 6.78L14.62 4.69C14.66 4.57 14.64 4.43 14.58 4.32C14.52 4.21 14.41 4.12 14.29 4.09L12.58 3.6L14.36 3.01C14.48 2.97 14.58 2.88 14.64 2.76L14.64 2.76C14.7 2.64 14.71 2.51 14.66 2.39L13.95 0.33C13.87 0.08 13.6 -0.06 13.35 0.02L7.43 2L1.23 0.23C0.97 0.16 0.71 0.31 0.63 0.56L0.02 2.65Z M3.77 3.21L5.8 2.53L1.42 1.29L1.08 2.45L3.77 3.21Z M10.94 4.14L8.91 4.82L13.21 6.04L13.55 4.88L10.94 4.14Z M13.59 2.24L13.2 1.1L1.41 5.03L1.8 6.17L13.59 2.24Z " /></g></svg>